<svg fill="currentColor" viewBox="0 0 593 599.79" preserveAspectRatio="xMidYMid meet" focusable="false"><g viewBox="0 0 593 599.79" ><path d="M296.5 214.26l195.89 113.06H100.61L296.5 214.26m0-42.72L6.89 338.69c-12.17 7-7.19 25.63 6.87 25.63h565.49c14 0 19-18.61 6.86-25.63L296.5 171.54zM315 150.12h-37V97.2s14.52-.61 18.5-.84c14.93-.85 29.41-13.77 29.41-30a29.41 29.41 0 0 0-58.82 0h-37A66.41 66.41 0 1 1 315 130.14z" ></path><path d="M259.39 144.69h74.23v48.27h-74.23zM186.01 549.93h37.11v49.86h-37.11zM334.47 549.93h37.11v49.86h-37.11zM378.46 356.41h56.28v144.32h-56.28zM260.24 549.93h37.11v49.86h-37.11z" ></path><path d="M168.87 327.09h217.51v230H168.87z" ></path></g></svg>
