<svg xmlns="http://www.w3.org/2000/svg" width="421.384" height="109.2" viewBox="0 0 421.384 109.2">
  <g id="jstube_logo" transform="translate(-38 -201)">
    <g id="YouTube_Logo_2017" transform="translate(36.183 200.6)">
      <path id="Path_1" data-name="Path 1" d="M154.3,17.5A19.6,19.6,0,0,0,140.5,3.7C128.4.4,79.7.4,79.7.4S31,.5,18.9,3.8A19.6,19.6,0,0,0,5.1,17.6C1.44,39.1.02,71.86,5.2,92.5A19.6,19.6,0,0,0,19,106.3c12.1,3.3,60.8,3.3,60.8,3.3s48.7,0,60.8-3.3a19.6,19.6,0,0,0,13.8-13.8C158.26,70.97,159.45,38.23,154.3,17.5Z" fill="red"/>
      <path id="Path_2" data-name="Path 2" d="M64.2,78.4,104.6,55,64.2,31.6Z" fill="#fff"/>
    </g>
    <path id="Path_3" data-name="Path 3" d="M1.652,77.88h12.39V99.474a26.173,26.173,0,0,0,.236,3.953,5.425,5.425,0,0,0,.826,2.3,2.916,2.916,0,0,0,1.652,1.121,10.375,10.375,0,0,0,2.714.295q3.658,0,4.661-1.475t1-6.195V24.78H38.822V99.474a55.98,55.98,0,0,1-.767,10.384,11.291,11.291,0,0,1-2.832,5.959,10.483,10.483,0,0,1-5.782,2.714,56.958,56.958,0,0,1-9.5.649,53.05,53.05,0,0,1-9.145-.649,10.271,10.271,0,0,1-5.605-2.655,11.2,11.2,0,0,1-2.773-5.9,56.8,56.8,0,0,1-.767-10.5ZM70.446,67.732v-5.31q0-3.068-.885-4.071t-4.307-1q-3.422,0-4.248,1t-.826,4.071v5.664a11.2,11.2,0,0,0,.236,2.6,4.61,4.61,0,0,0,.826,1.711,5.594,5.594,0,0,0,1.77,1.416A32.633,32.633,0,0,0,66.2,75.284a10.589,10.589,0,0,0,1.475.708q1.121.472,2.478,1.121t2.714,1.239a23.09,23.09,0,0,1,2.183,1.062,24.163,24.163,0,0,1,3.776,2.478,8.4,8.4,0,0,1,2.124,2.537,9.262,9.262,0,0,1,.944,2.95,24.735,24.735,0,0,1,.236,3.6v13.1a39.217,39.217,0,0,1-.649,7.965,8.168,8.168,0,0,1-2.478,4.6,9.681,9.681,0,0,1-5.074,2.065,61.93,61.93,0,0,1-8.555.472,62.175,62.175,0,0,1-8.5-.472,10.108,10.108,0,0,1-5.192-2.065,8.285,8.285,0,0,1-2.6-4.6,36.041,36.041,0,0,1-.708-7.965V93.22h11.8v9.558q0,3.186.944,4.189t4.248,1q3.422,0,4.248-1.062t.826-4.13V94.164a13.125,13.125,0,0,0-.177-2.36,3.912,3.912,0,0,0-.708-1.652,6.231,6.231,0,0,0-1.475-1.357,15.4,15.4,0,0,0-2.6-1.357q-1.416-.708-2.6-1.18t-2.3-.885q-1.121-.413-2.3-.944a28.126,28.126,0,0,1-2.6-1.357,21.082,21.082,0,0,1-3.658-2.36A9.493,9.493,0,0,1,49.8,78.057a10.017,10.017,0,0,1-1.121-3.422,32.624,32.624,0,0,1-.295-4.779V61.242a36.041,36.041,0,0,1,.708-7.965,8.464,8.464,0,0,1,2.537-4.6,9.754,9.754,0,0,1,5.133-2.065,63.277,63.277,0,0,1,8.614-.472,62.175,62.175,0,0,1,8.5.472A9.754,9.754,0,0,1,79,48.675a8.168,8.168,0,0,1,2.478,4.6,39.218,39.218,0,0,1,.649,7.965v6.49Zm51.566-31.624H111.864V118H98.294V36.108H88.028V24.78h33.984Zm25.96,11.21h12.154V118H148.8v-4.6a8.738,8.738,0,0,1-3.953,3.953,17.319,17.319,0,0,1-7.375,1.239,19.738,19.738,0,0,1-5.723-.708,7.417,7.417,0,0,1-3.658-2.36,10.22,10.22,0,0,1-1.947-4.425,33.907,33.907,0,0,1-.59-6.9V47.318h12.036v55.7a5.818,5.818,0,0,0,.944,3.658q.944,1.18,3.658,1.18a6.008,6.008,0,0,0,3.894-1,7.06,7.06,0,0,0,1.888-2.655Zm56.64,56.876a42.166,42.166,0,0,1-.472,6.9,10.127,10.127,0,0,1-1.711,4.425,6.739,6.739,0,0,1-3.422,2.36,18.527,18.527,0,0,1-5.6.708,16.353,16.353,0,0,1-7.2-1.3,9.315,9.315,0,0,1-4.13-4.366V118h-11.21V24.78H182.9v26.9a9.912,9.912,0,0,1,3.776-3.658,14.481,14.481,0,0,1,6.844-1.3q6.608,0,8.85,3.3t2.242,11.092Zm-22.066,0a6.748,6.748,0,0,0,2.183,2.832,6.5,6.5,0,0,0,3.6.826q2.714,0,3.658-1.239t.944-4.661V63.484q0-3.422-.944-4.661t-3.658-1.239a6.5,6.5,0,0,0-3.6.826,6.748,6.748,0,0,0-2.183,2.832ZM225.38,86.848v16.638q0,3.422.885,4.425t4.189,1q3.186,0,4.13-1t.944-4.425V93.928h10.856v10.266a39.217,39.217,0,0,1-.649,7.965,8.039,8.039,0,0,1-2.419,4.543,9.482,9.482,0,0,1-4.9,2.006,56.1,56.1,0,0,1-8.083.472,62.175,62.175,0,0,1-8.5-.472,9.754,9.754,0,0,1-5.133-2.065,8.126,8.126,0,0,1-2.478-4.543,38.319,38.319,0,0,1-.649-7.906V61.124a38.319,38.319,0,0,1,.649-7.906,8.126,8.126,0,0,1,2.478-4.543,9.754,9.754,0,0,1,5.133-2.065,62.175,62.175,0,0,1,8.5-.472,56.1,56.1,0,0,1,8.083.472,9.482,9.482,0,0,1,4.9,2.006,8.039,8.039,0,0,1,2.419,4.543,39.218,39.218,0,0,1,.649,7.965V86.848Zm0-9.676h10.148v-15.1q0-3.422-.944-4.366t-4.13-.944q-3.3,0-4.189.944t-.885,4.366Z" transform="translate(213 185)" fill="#282828"/>
  </g>
</svg>
